# Blender3D v249 OBJ File: chair.blend
# www.blender3d.org
mtllib chair.mtl
v -0.415565 -0.205387 0.175045
v -0.415565 -0.205387 -0.152503
v -0.297426 -0.205387 -0.152503
v -0.297426 -0.205387 0.175045
v -0.415565 -0.025663 0.205387
v -0.415565 -0.025663 -0.205387
v -0.297426 -0.025663 -0.205387
v -0.297426 -0.025663 0.205387
v -0.297426 0.371327 0.248449
v -0.297426 0.410774 -0.248449
v -0.415565 0.410774 -0.248449
v -0.415565 0.371327 0.248449
v -0.415565 0.499115 0.256804
v -0.415565 0.516021 -0.240094
v -0.297426 0.516021 -0.240094
v -0.297426 0.499115 0.256805
v -0.297426 0.518229 -0.381697
v -0.415565 0.518229 -0.381698
v -0.415565 0.412982 -0.390053
v -0.297426 0.412982 -0.390053
v -0.297426 0.421816 -0.498786
v -0.415565 0.421816 -0.498786
v -0.415565 0.527390 -0.499635
v -0.297426 0.527390 -0.499635
v -0.415565 0.374671 -0.490763
v -0.297426 0.374671 -0.490763
v -0.297426 0.381750 -0.381902
v -0.415565 0.381750 -0.381902
v 0.297980 0.381750 -0.381902
v 0.297980 0.374671 -0.490763
v 0.297980 0.527390 -0.499635
v 0.297980 0.421816 -0.498786
v 0.297980 0.412982 -0.390053
v 0.297980 0.518229 -0.381698
v 0.297980 0.499115 0.256805
v 0.297980 0.516021 -0.240094
v 0.297980 0.410774 -0.248449
v 0.297980 0.371327 0.248449
v 0.297980 -0.025663 0.205387
v 0.297980 -0.025663 -0.205387
v 0.297980 -0.205387 0.175045
v 0.297980 -0.205387 -0.152503
v 0.426721 -0.205387 -0.152503
v 0.426721 -0.205387 0.175045
v 0.426722 -0.025663 -0.205387
v 0.426721 -0.025663 0.205387
v 0.426721 0.371327 0.248449
v 0.426722 0.410774 -0.248449
v 0.426722 0.516021 -0.240094
v 0.426721 0.499115 0.256805
v 0.426722 0.518229 -0.381698
v 0.426722 0.412982 -0.390053
v 0.426721 0.421816 -0.498786
v 0.426721 0.527390 -0.499635
v 0.426722 0.374671 -0.490763
v 0.426722 0.381750 -0.381902
v -0.363798 -0.205387 -0.152503
v -0.363798 -0.205387 0.175045
v 0.370099 -0.205387 -0.152503
v 0.370099 -0.205387 0.175045
v -0.415565 -0.205387 0.065862
v -0.415565 -0.205387 -0.043321
v 0.426721 -0.205387 -0.043321
v 0.426721 -0.205387 0.065862
v -0.363798 -0.205387 -0.043321
v -0.363798 -0.205387 0.065862
v 0.370099 -0.205387 -0.043321
v 0.370099 -0.205387 0.065862
v 0.370099 -0.337126 0.065862
v 0.370099 -0.337126 -0.043321
v -0.363798 -0.337126 0.065862
v -0.363798 -0.337126 -0.043321
v 0.426721 -0.337126 0.065862
v 0.426721 -0.337126 -0.043321
v -0.415565 -0.337126 -0.043321
v -0.415565 -0.337126 0.065862
v -0.479271 -0.360415 0.147749
v -0.479271 -0.360415 -0.125208
v 0.494346 -0.360415 -0.125208
v 0.494346 -0.360415 0.147749
v -0.293721 -0.360415 -0.125208
v -0.293721 -0.360415 0.147749
v 0.295712 -0.360415 -0.125208
v 0.295712 -0.360415 0.147749
v -0.311663 -0.008073 0.180724
v -0.311663 -0.093396 0.162895
v 0.311663 -0.093396 0.162895
v 0.311663 -0.008073 0.180724
v -0.311664 0.106179 -0.505111
v -0.311663 0.020857 -0.522940
v 0.311664 0.020857 -0.522940
v 0.311663 0.106179 -0.505111
v -0.295590 0.386249 0.271741
v -0.239930 -0.001530 0.230762
v 0.239930 -0.001530 0.230762
v 0.295590 0.386249 0.271741
v -0.295590 0.398707 0.153852
v -0.239930 0.010928 0.112873
v 0.239930 0.010928 0.112873
v 0.295590 0.398707 0.153852
v 0.256163 0.784278 0.235583
v -0.256164 0.784278 0.235584
v 0.256163 0.776103 0.312939
v -0.256163 0.776103 0.312939
v -0.256164 0.934551 0.329683
v 0.256163 0.934551 0.329683
v -0.256164 0.945451 0.226534
v 0.256163 0.945451 0.226534
vn -0.000001 -0.107839 0.994168
vn 0.000002 -0.098190 -0.995168
vn -1.000000 -0.000000 0.000000
vn -0.000001 -0.065245 0.997869
vn -0.000000 0.999422 0.034004
vn -0.000000 0.999879 0.015589
vn 0.000000 -0.999879 -0.015589
vn -1.000000 0.000000 -0.000001
vn -0.000000 0.996997 0.077445
vn 0.000002 -0.008044 -0.999968
vn 0.000002 -0.167761 -0.985828
vn -1.000000 -0.000001 -0.000001
vn -0.000002 0.252524 0.967591
vn 0.000000 -0.997892 0.064891
vn 0.000000 -0.107839 0.994168
vn -0.000000 -0.098190 -0.995168
vn 0.000000 -0.065244 0.997869
vn -0.000000 -0.999878 -0.015589
vn 0.000000 0.999878 0.015589
vn 0.000000 -0.008044 -0.999968
vn 0.000000 0.252523 0.967591
vn 0.000000 -0.167761 -0.985828
vn 1.000000 -0.000000 0.000000
vn 0.000001 -0.282283 -0.959331
vn 0.000000 -0.282282 -0.959331
vn -0.000001 -0.166471 0.986046
vn 0.000000 -0.166471 0.986046
vn 1.000000 -0.000001 -0.000000
vn 0.000000 -1.000000 0.000000
vn 0.000000 0.000000 1.000000
vn -0.000000 -0.000000 -1.000000
vn -0.000001 0.000000 1.000000
vn 0.000001 -0.000000 -1.000000
vn -0.343348 0.939208 0.000000
vn 0.325622 0.945500 -0.000000
vn 0.315378 0.948966 -0.000000
vn -0.298782 0.954321 0.000000
vn -0.000000 0.961855 -0.273558
vn -0.000000 0.961855 0.273558
vn 1.000000 -0.000000 0.000001
vn 0.000000 -0.204545 0.978857
vn -0.000000 0.204545 -0.978857
vn -1.000000 -0.000002 -0.000000
vn 0.000000 -0.986406 -0.164325
vn 1.000000 0.000002 0.000000
vn 0.000000 -0.105091 0.994463
vn -0.989965 -0.140527 -0.014850
vn 0.000000 -0.994463 -0.105091
vn 0.989965 -0.140527 -0.014850
vn 0.994981 0.099512 0.010516
vn -0.994981 0.099512 0.010518
vn 0.000000 -0.105090 0.994463
vn -1.000000 -0.000000 0.000002
vn 0.000000 0.994463 0.105090
vn 0.000000 0.986406 0.164325
vn -0.000000 0.105091 -0.994463
vn -0.000000 0.207367 -0.978263
vn -0.000000 -0.056061 -0.998427
g Cube_Cube_Material
usemtl Material
s off
f 5//1 8//1 9//1 12//1
f 7//2 6//2 11//2 10//2
f 11//3 12//3 13//3 14//3
f 12//4 9//4 16//4 13//4
f 13//5 16//5 15//5 14//5
f 14//6 15//6 17//6 18//6
f 11//3 14//3 18//3 19//3
f 10//7 11//7 19//7 20//7
f 19//8 18//8 23//8 22//8
f 18//9 17//9 24//9 23//9
f 21//10 22//10 23//10 24//10
f 22//11 21//11 26//11 25//11
f 19//12 22//12 25//12 28//12
f 20//13 19//13 28//13 27//13
f 27//14 28//14 25//14 26//14
f 38//15 39//15 46//15 47//15
f 40//16 37//16 48//16 45//16
f 36//5 35//5 50//5 49//5
f 35//17 38//17 47//17 50//17
f 37//18 33//18 52//18 48//18
f 34//19 36//19 49//19 51//19
f 31//9 34//9 51//9 54//9
f 32//20 31//20 54//20 53//20
f 33//21 29//21 56//21 52//21
f 29//14 30//14 55//14 56//14
f 30//22 32//22 53//22 55//22
f 47//23 48//23 49//23 50//23
f 49//23 48//23 52//23 51//23
f 51//23 52//23 53//23 54//23
f 53//23 52//23 56//23 55//23
f 57//24 6//24 7//24
f 3//25 57//25 7//25
f 57//24 2//24 6//24
f 58//26 8//26 5//26
f 1//26 58//26 5//26
f 58//27 4//27 8//27
f 59//25 40//25 45//25
f 43//25 59//25 45//25
f 59//25 42//25 40//25
f 60//27 46//27 39//27
f 41//27 60//27 39//27
f 60//27 44//27 46//27
f 2//3 62//3 6//3
f 61//3 1//3 5//3
f 44//23 64//23 46//23
f 63//28 43//28 45//28
f 57//29 65//29 62//29 2//29
f 1//29 61//29 66//29 58//29
f 66//29 65//29 3//29 4//29
f 58//29 66//29 4//29
f 65//29 57//29 3//29
f 67//29 68//29 41//29 42//29
f 59//29 67//29 42//29
f 68//29 60//29 41//29
f 43//29 63//29 67//29 59//29
f 64//29 44//29 60//29 68//29
f 64//30 68//30 69//30 73//30
f 67//31 63//31 74//31 70//31
f 66//32 61//32 76//32 71//32
f 62//33 65//33 72//33 75//33
f 68//3 67//3 70//3 69//3
f 65//23 66//23 71//23 72//23
f 63//23 64//23 73//23 74//23
f 61//3 62//3 75//3 76//3
f 76//34 75//34 78//34 77//34
f 74//35 73//35 80//35 79//35
f 72//36 71//36 82//36 81//36
f 69//37 70//37 83//37 84//37
f 75//38 72//38 81//38 78//38
f 71//39 76//39 77//39 82//39
f 70//38 74//38 79//38 83//38
f 73//39 69//39 84//39 80//39
f 81//29 82//29 77//29 78//29
f 79//29 80//29 84//29 83//29
f 39//3 40//3 42//3 41//3
f 37//3 40//3 39//3 38//3
f 35//3 36//3 37//3 38//3
f 33//3 37//3 36//3 34//3
f 31//3 32//3 33//3 34//3
f 30//3 29//3 33//3 32//3
f 3//23 7//23 8//23 4//23
f 7//23 10//23 9//23 8//23
f 9//23 10//23 15//23 16//23
f 10//40 20//40 17//40 15//40
f 17//23 20//23 21//23 24//23
f 20//23 27//23 26//23 21//23
f 87//41 88//41 85//41 86//41
f 89//42 92//42 91//42 90//42
f 85//43 89//43 90//43 86//43
f 86//44 90//44 91//44 87//44
f 87//45 91//45 92//45 88//45
f 95//46 96//46 93//46 94//46
f 93//47 97//47 98//47 94//47
f 94//48 98//48 99//48 95//48
f 95//49 99//49 100//49 96//49
f 96//50 100//50 101//50 103//50
f 97//51 93//51 104//51 102//51
f 93//46 96//46 103//46 104//46
f 104//52 103//52 106//52 105//52
f 102//53 104//53 105//53 107//53
f 103//23 101//23 108//23 106//23
f 106//54 108//54 107//54 105//54
g Cube_Cube_Material.001
usemtl Material.001
f 6//3 5//3 12//3 11//3
f 46//23 45//23 48//23 47//23
f 62//3 61//3 5//3 6//3
f 64//23 63//23 45//23 46//23
f 88//55 92//55 89//55 85//55
f 97//56 100//56 99//56 98//56
f 100//57 97//57 102//57 101//57
f 101//58 102//58 107//58 108//58
