# Blender3D v249 OBJ File: stadium3.blend
# www.blender3d.org
mtllib stadium3.mtl
v 7.038458 -0.235835 -14.076434
v 14.076434 -0.235834 14.076434
v -14.076436 -0.235834 14.076430
v -7.038451 -0.235835 -14.076439
v 7.038461 0.235834 -14.076427
v 14.076426 0.235835 14.076443
v -14.076439 0.235835 14.076429
v -7.038453 0.235834 -14.076434
v 14.561498 0.235836 14.455179
v 7.523533 0.235845 -14.697691
v 14.561506 -0.235833 14.455170
v 7.523530 -0.235824 -14.697699
v -7.523525 0.235838 -14.697699
v -14.561511 0.235829 14.455166
v -7.523523 -0.235831 -14.697702
v -14.561508 -0.235839 14.455166
v -14.561516 5.237659 14.455181
v 14.561468 5.237667 14.455202
v -14.076445 5.237666 14.076445
v 14.076396 5.237666 14.076466
v 7.523503 4.235845 -14.697653
v 7.038431 4.235834 -14.076389
v -7.523531 4.235838 -14.697668
v -7.038459 4.235834 -14.076405
v -7.038459 6.284276 -11.024918
v -7.523531 6.687531 -11.497520
v 7.038431 6.284266 -11.024906
v 7.523503 6.687527 -11.497505
v 7.523501 8.725839 1.533320
v 7.038429 8.177661 1.825673
v -7.523533 8.725848 1.533307
v -7.038461 8.177674 1.825666
v -7.038462 8.181981 14.076508
v -7.523534 8.730155 13.784148
v 7.038428 8.181968 14.076514
v 7.523500 8.730145 13.784161
v 10.557413 4.736750 0.000038
v 11.042486 4.736755 -0.121226
v -10.557451 4.736750 0.000020
v -11.042523 4.736749 -0.121244
v -8.797955 4.486291 -10.556621
v -9.283028 4.486293 -10.927884
v 8.797922 4.486291 -10.556604
v 9.282995 4.486300 -10.927868
v 7.436506 0.235834 -12.484189
v -7.436606 0.235834 -12.483767
v -7.436606 0.716264 -12.483767
v 7.436506 0.716264 -12.484189
v -7.038453 0.716264 -14.076434
v 7.038461 0.716264 -14.076427
v -14.076442 3.593468 14.076437
v 14.076410 3.593468 14.076454
v -14.076441 3.014263 14.076433
v 14.076418 3.014263 14.076448
v 12.803744 2.121089 8.677057
v -12.803758 2.121089 8.677042
v 12.803738 2.700293 8.677063
v -12.803759 2.700293 8.677046
v -6.104443 0.716264 -12.483851
v -4.956471 0.716264 -12.483935
v 4.956245 0.716264 -12.484020
v 6.104322 0.716264 -12.484104
v -5.777585 0.716264 -14.076433
v -4.690964 0.716264 -14.076431
v 4.691097 0.716264 -14.076430
v 5.777612 0.716264 -14.076428
v 4.976022 0.716264 -13.798672
v 4.803494 0.716264 -13.288969
v 5.952090 0.716264 -13.276352
v 5.797668 0.716264 -12.756991
v -5.886131 0.716264 -12.841293
v -5.943280 0.716264 -13.380197
v -4.888340 0.716264 -13.715919
v -4.811712 0.716264 -13.183243
v -4.811712 1.245635 -13.183243
v -4.888340 1.245635 -13.715919
v -5.943280 1.245635 -13.380197
v -5.886131 1.245635 -12.841293
v -5.886131 1.468051 -13.107817
v -5.943280 1.468051 -13.380197
v -4.888340 1.468051 -13.715919
v -4.811712 1.468051 -13.449766
v 5.797668 1.302280 -12.756991
v 5.952090 1.302280 -13.276352
v 4.803494 1.302280 -13.288969
v 4.976022 1.302280 -13.798672
v 4.976022 1.479686 -13.798672
v 4.841485 1.479686 -13.287983
v 5.952090 1.479686 -13.276352
v 5.835660 1.479686 -12.756005
vn 0.972074 0.000008 -0.234674
vn 0.972074 0.000007 -0.234674
vn -0.972074 0.000000 -0.234675
vn -0.953371 -0.262375 -0.149143
vn -0.906159 0.000002 -0.422938
vn 0.894467 -0.000002 0.447133
vn 0.951380 0.267779 0.152215
vn 0.906159 0.000011 -0.422937
vn 0.953373 -0.262367 -0.149143
vn -0.951383 0.267771 0.152215
vn -0.894468 -0.000011 0.447133
vn -0.705965 -0.588039 0.394745
vn -0.765579 -0.510696 0.391252
vn -0.705965 0.588038 -0.394746
vn 0.765579 -0.510695 0.391253
vn -0.970145 -0.000009 0.242528
vn -0.970145 -0.000008 0.242527
vn 0.970144 0.000000 0.242528
vn 0.970144 0.000001 0.242528
vn -0.615418 0.000002 -0.788201
vn -0.615417 0.000003 -0.788202
vn 0.615423 0.000007 -0.788197
vn 0.615416 0.000011 -0.788203
vn -0.970145 -0.000010 0.242528
vn -0.615428 0.000004 -0.788193
vn -0.615416 0.000001 -0.788203
vn 0.615416 0.000003 -0.788203
vn 0.615461 0.000016 -0.788168
vn -0.970144 -0.000003 0.242529
vn -0.970144 -0.000015 0.242527
vn 0.000064 0.000000 1.000000
vn 0.000073 0.000026 1.000000
vn 0.000073 -0.000026 1.000000
vn 0.000001 0.000000 -1.000000
vn 0.000002 -0.000003 -1.000000
vn 0.000002 0.000003 -1.000000
vn -0.000000 1.000000 -0.000000
vn -0.952509 0.102786 -0.286638
vn 0.962480 -0.103753 0.250734
vn -0.469632 0.095692 0.877661
vn 0.471819 0.000000 -0.881696
vn -0.947208 -0.000000 -0.320619
vn 0.958528 0.000000 0.285000
vn -0.471797 0.000000 0.881707
vn -0.303252 -0.000000 -0.952910
vn 0.199806 0.752295 0.627797
vn 0.975709 -0.168196 -0.140361
vn 0.960964 0.000000 -0.276672
vn -0.986578 0.125372 0.104624
vn -0.978690 0.000000 0.205344
vn -0.994424 0.000000 0.105456
vn 0.989811 0.000000 -0.142389
vn 0.303275 0.000000 0.952903
vn 0.000000 -0.000005 -1.000000
vn 0.000000 0.000004 -1.000000
vn 0.000009 0.000307 1.000000
vn 0.000028 -0.000205 1.000000
vn 0.000001 0.000007 -1.000000
vn 0.000001 0.000010 -1.000000
vn 0.000000 0.986592 -0.163203
vn -0.973327 -0.000000 -0.229422
vn 0.973327 0.000015 -0.229422
vn 0.973327 0.000013 -0.229422
vn -0.000000 -0.986592 0.163203
vn -0.000000 -0.986592 0.163204
vn 0.000001 0.000001 -1.000000
vn 0.000000 0.000002 -1.000000
vn 0.000001 0.000005 -1.000000
vn 0.970145 0.000000 -0.242528
vn -0.970144 -0.000000 -0.242528
vn -0.000001 0.188686 0.982038
vn -0.000001 0.188686 0.982037
vn -0.000001 -0.000020 1.000000
vn -0.000000 -0.000018 1.000000
vn 0.723254 -0.682286 0.106725
vn 0.790814 -0.595225 0.142552
vn -0.725577 0.674379 -0.136933
vn -0.665555 0.738377 -0.108792
vn -0.790813 -0.595226 0.142552
vn -0.723253 -0.682286 0.106725
vn -0.725576 -0.674380 0.136933
vn -0.665555 -0.738377 0.108792
vn -0.005704 0.999724 -0.022768
vn -0.015783 0.999663 -0.020598
vn -0.039321 0.997906 -0.051352
vn -0.053149 0.997725 -0.041480
vn 0.039311 0.997906 -0.051357
vn 0.053140 0.997725 -0.041484
vn 0.005690 0.999725 -0.022770
vn 0.015771 0.999663 -0.020600
vn -0.450803 0.881714 -0.139131
vn -0.749865 0.661591 -0.000233
vn -0.385935 0.922526 -0.000324
vn -0.636047 0.748982 -0.185660
vn -0.450802 -0.881714 0.139130
vn -0.749864 -0.661592 0.000232
vn -0.385935 -0.922526 0.000324
vn -0.636047 -0.748983 0.185659
vn 0.008366 0.999405 -0.033473
vn -0.033033 0.998559 -0.042290
vn -0.008379 0.999405 -0.033470
vn 0.033013 0.998560 -0.042285
vn 0.000000 0.470578 0.882358
vn -0.000000 0.470588 0.882353
vn 0.748959 -0.662616 0.000233
vn -0.748957 -0.662618 0.000233
vn 0.000001 1.000000 -0.000352
vn -0.000001 -1.000000 0.000352
vn -0.000001 -0.989319 0.145766
vn 0.000000 0.987986 -0.154543
vn 0.000001 0.987986 -0.154543
vn -0.696965 -0.708490 0.110824
vn -0.769755 -0.631521 0.093048
vn 0.696968 -0.708487 0.110823
vn 0.769757 -0.631519 0.093048
vn 0.614503 -0.626254 0.479783
vn 0.776739 -0.522926 0.351035
vn -0.614499 -0.626256 0.479786
vn -0.776738 -0.522926 0.351037
vn 0.000000 0.793816 -0.608158
vn 0.000001 0.793818 -0.608156
vn -0.000001 -0.830273 0.557357
vn -0.000001 -0.830274 0.557355
vn -0.000000 -0.000010 1.000000
vn -0.000001 -0.000007 1.000000
vn 0.000001 0.000008 -1.000000
vn 0.788203 0.000006 -0.615415
vn 0.788203 0.000006 -0.615416
vn -0.788203 0.000000 -0.615416
vn -0.000000 1.000000 0.000018
vn -0.000000 1.000000 -0.000002
vn -0.000000 -0.000005 1.000000
vn -0.000001 -0.000003 1.000000
vn -0.000000 -0.000020 1.000000
vn -0.000000 -0.000000 1.000000
vn -0.000000 -1.000000 0.000003
vn 0.000000 -1.000000 -0.000015
vn 0.000001 0.000016 -1.000000
vn 0.000000 0.000008 -1.000000
vn 0.000000 -1.000000 -0.000007
vn 0.000000 -1.000000 -0.000017
vn -0.972074 -0.000006 -0.234675
vn -0.972074 -0.000002 -0.234675
vn 0.000015 -1.000000 0.000004
vn -0.000006 -1.000000 -0.000002
vn 0.615416 0.000005 0.788203
vn 0.615415 0.000004 0.788203
vn 0.788203 0.000009 -0.615416
vn 0.788203 0.000008 -0.615415
vn 0.972074 -0.000002 -0.234674
vn 0.972074 0.000022 -0.234674
vn 0.000002 -1.000000 -0.000001
vn 0.000017 -1.000000 -0.000004
vn -0.788203 0.000013 -0.615415
vn -0.788203 0.000015 -0.615416
vn -0.615416 -0.000026 0.788203
vn -0.615415 -0.000027 0.788203
vn -0.000000 -1.000000 0.000000
g Cube_Cube_Material.001
usemtl Material.001
s off
f 38//1 9//1 10//1
f 38//2 18//2 9//2
f 40//3 13//3 14//3
f 17//3 40//3 14//3
f 40//4 42//4 13//4
f 42//5 23//5 13//5
f 24//6 41//6 8//6
f 41//7 39//7 8//7
f 21//8 44//8 10//8
f 44//9 38//9 10//9
f 37//10 43//10 5//10
f 43//11 22//11 5//11
f 22//12 43//12 27//12
f 21//13 44//13 28//13
f 24//14 41//14 25//14
f 23//15 26//15 42//15
f 5//16 45//16 37//16
f 45//17 6//17 37//17
f 7//18 46//18 39//18
f 46//19 8//19 39//19
f 51//20 14//20 17//20
f 19//21 51//21 17//21
f 52//22 18//22 9//22
f 52//23 20//23 18//23
f 52//24 20//24 37//24
f 19//19 51//19 39//19
f 51//25 53//25 14//25
f 53//26 7//26 14//26
f 6//27 54//27 9//27
f 54//28 52//28 9//28
f 6//29 54//29 37//29
f 54//30 52//30 37//30
f 51//18 53//18 39//18
f 53//18 7//18 39//18
f 48//31 62//31 45//31
f 59//31 47//31 46//31
f 62//32 61//32 45//32
f 60//33 59//33 46//33
f 49//34 63//34 8//34
f 66//34 50//34 5//34
f 63//35 64//35 8//35
f 65//36 66//36 5//36
f 61//37 68//37 60//37
f 67//37 65//37 64//37
f 66//37 69//37 50//37
f 70//37 62//37 48//37
f 59//37 71//37 47//37
f 72//37 63//37 49//37
f 64//37 73//37 67//37
f 74//37 60//37 68//37
f 86//38 85//38 88//38 87//38
f 83//39 84//39 89//39 90//39
f 85//40 83//40 90//40 88//40
f 90//37 89//37 87//37 88//37
f 84//41 86//41 87//41
f 84//41 87//41 89//41
f 67//42 68//42 85//42
f 67//42 85//42 86//42
f 70//43 69//43 84//43
f 70//43 84//43 83//43
f 68//44 70//44 83//44
f 68//44 83//44 85//44
f 69//41 67//41 86//41
f 69//41 86//41 84//41
f 82//37 81//37 80//37
f 82//37 80//37 79//37
f 76//45 77//45 80//45
f 76//45 80//45 81//45
f 78//46 75//46 79//46
f 75//46 82//46 79//46
f 75//47 76//47 82//47
f 76//48 81//48 82//48
f 77//49 78//49 79//49
f 77//50 79//50 80//50
f 72//51 71//51 78//51
f 72//51 78//51 77//51
f 74//52 73//52 76//52
f 74//52 76//52 75//52
f 71//53 74//53 75//53
f 71//53 75//53 78//53
f 73//45 72//45 77//45
f 73//45 77//45 76//45
f 73//37 74//37 68//37
f 73//37 68//37 67//37
f 73//37 64//37 63//37
f 73//37 63//37 72//37
f 60//37 74//37 71//37
f 60//37 71//37 59//37
f 71//37 72//37 49//37
f 71//37 49//37 47//37
f 69//37 70//37 48//37
f 69//37 48//37 50//37
f 69//37 66//37 67//37
f 66//37 65//37 67//37
f 62//37 70//37 61//37
f 70//37 68//37 61//37
f 64//54 65//54 5//54
f 64//55 5//55 8//55
f 61//56 60//56 46//56
f 61//57 46//57 45//57
f 56//58 58//58 57//58
f 56//59 57//59 55//59
f 51//60 52//60 58//60
f 52//60 57//60 58//60
f 53//61 51//61 58//61
f 53//61 58//61 56//61
f 52//62 54//62 57//62
f 54//63 55//63 57//63
f 54//64 53//64 56//64
f 54//65 56//65 55//65
f 7//66 53//66 54//66
f 7//67 54//67 6//67
f 51//68 19//68 20//68
f 51//58 20//58 52//58
f 45//69 5//69 50//69
f 45//69 50//69 48//69
f 8//70 46//70 47//70
f 8//70 47//70 49//70
f 46//37 7//37 6//37
f 46//37 6//37 45//37
f 17//71 18//71 34//71
f 18//72 36//72 34//72
f 19//73 20//73 33//73
f 20//74 35//74 33//74
f 26//75 31//75 40//75
f 26//76 40//76 42//76
f 25//77 41//77 39//77
f 25//78 39//78 32//78
f 28//79 44//79 38//79
f 28//80 38//80 29//80
f 27//81 43//81 37//81
f 27//82 37//82 30//82
f 43//83 37//83 38//83
f 43//84 38//84 44//84
f 22//85 43//85 44//85
f 22//86 44//86 21//86
f 41//87 24//87 42//87
f 24//88 23//88 42//88
f 39//89 41//89 40//89
f 41//90 42//90 40//90
f 17//91 34//91 40//91
f 34//92 31//92 40//92
f 19//93 33//93 32//93
f 19//94 32//94 39//94
f 18//95 36//95 38//95
f 36//96 29//96 38//96
f 20//97 35//97 30//97
f 20//98 30//98 37//98
f 19//99 39//99 40//99
f 19//100 40//100 17//100
f 37//101 20//101 38//101
f 20//102 18//102 38//102
f 33//103 35//103 36//103
f 33//104 36//104 34//104
f 30//105 29//105 36//105
f 30//105 36//105 35//105
f 31//106 32//106 34//106
f 32//106 33//106 34//106
f 29//107 31//107 34//107
f 29//107 34//107 36//107
f 32//108 30//108 33//108
f 30//108 35//108 33//108
f 25//109 27//109 32//109
f 27//109 30//109 32//109
f 28//110 26//110 31//110
f 28//111 31//111 29//111
f 26//112 25//112 31//112
f 25//113 32//113 31//113
f 27//114 28//114 29//114
f 27//115 29//115 30//115
f 22//116 21//116 28//116
f 22//117 28//117 27//117
f 23//118 24//118 26//118
f 24//119 25//119 26//119
f 21//120 23//120 26//120
f 21//121 26//121 28//121
f 24//122 22//122 25//122
f 22//123 27//123 25//123
f 8//124 5//124 22//124
f 8//125 22//125 24//125
f 10//59 13//59 21//59
f 13//126 23//126 21//126
f 8//127 13//127 24//127
f 13//128 23//128 24//128
f 10//129 5//129 22//129
f 10//129 22//129 21//129
f 20//130 19//130 17//130
f 20//131 17//131 18//131
f 14//132 9//132 18//132
f 14//133 18//133 17//133
f 11//134 9//134 16//134
f 9//135 14//135 16//135
f 3//136 2//136 11//136
f 3//137 11//137 16//137
f 10//138 12//138 13//138
f 12//139 15//139 13//139
f 1//140 4//140 15//140
f 1//141 15//141 12//141
f 16//142 14//142 13//142
f 16//143 13//143 15//143
f 4//144 3//144 16//144
f 4//145 16//145 15//145
f 3//146 7//146 14//146
f 3//147 14//147 16//147
f 8//148 4//148 15//148
f 8//149 15//149 13//149
f 12//150 10//150 11//150
f 10//151 9//151 11//151
f 2//152 1//152 11//152
f 1//153 12//153 11//153
f 1//154 5//154 12//154
f 5//155 10//155 12//155
f 6//156 2//156 9//156
f 2//157 11//157 9//157
f 1//158 2//158 3//158
f 1//158 3//158 4//158
