# Blender3D v249 OBJ File: concerthall.blend
# www.blender3d.org
mtllib concerthall.mtl
v 22.967827 -5.492307 -17.595985
v 22.967823 -3.510575 17.475519
v -22.967827 -3.510575 17.475513
v -22.967812 -5.492307 -17.595991
v 22.967836 -4.493706 -17.475510
v 22.967810 -4.493704 17.475529
v -22.967831 -4.493704 17.475513
v -22.967821 -4.493706 -17.475519
v 24.216061 -4.493708 18.723780
v 24.216087 -4.493695 -18.723761
v 24.216076 -3.510579 18.723770
v 24.216076 -5.492297 -18.723770
v -24.216072 -4.493704 -18.723770
v -24.216082 -4.493717 18.723763
v -24.216066 -5.492305 -18.723776
v -24.216078 -3.510588 18.723764
v -24.216089 0.499288 18.723774
v -24.216080 0.499301 -18.723759
v 24.216080 0.499310 -18.723749
v 24.216053 0.499297 18.723793
v -22.967829 0.499300 -17.475506
v -22.967838 0.499301 17.475525
v 22.967802 0.499301 17.475540
v 22.967829 0.499300 -17.475498
v 22.967827 -7.539643 -8.703659
v 22.967823 -5.492305 5.825175
v -22.967821 -5.492305 5.825168
v -22.967817 -7.539643 -8.703664
v 24.216070 -4.493703 6.241267
v 24.216078 -4.493700 -6.241246
v 24.216076 -5.492305 6.241257
v 24.216076 -5.492301 -6.241256
v -24.216076 -4.493709 -6.241259
v -24.216080 -4.493712 6.241252
v -24.216070 -5.492310 -6.241262
v -24.216072 -5.492314 6.241251
v -24.216087 0.499292 6.241264
v -24.216082 0.499297 -6.241247
v 24.216070 0.499306 -6.241235
v 24.216063 0.499301 6.241278
v -22.967831 0.499300 -5.825162
v -22.967836 0.499301 5.825181
v 22.967812 0.499301 5.825195
v 22.967819 0.499300 -5.825152
v -24.216078 -2.852746 -6.241254
v -24.216080 -2.390231 -6.241251
v -24.216082 -2.852747 6.241257
v -24.216085 -2.390232 6.241260
v 24.216068 -2.852745 6.241271
v 24.216066 -2.390229 6.241274
v 24.216076 -2.852744 -6.241242
v 24.216072 -2.390228 -6.241239
v 17.273664 -2.390267 -4.254648
v 17.273666 -2.852782 -4.254650
v 17.273657 -2.390268 4.254673
v 17.273659 -2.852784 4.254670
v -17.273676 -2.390193 4.254668
v -17.273674 -2.852709 4.254665
v -17.273672 -2.390192 -4.254651
v -17.273668 -2.852708 -4.254653
v 22.967827 -5.492306 -13.632940
v 22.967827 -7.539643 -12.666709
v -22.967817 -5.492306 -13.632941
v -22.967817 -7.539643 -12.666710
v 7.655939 -3.510574 24.721628
v -7.655946 -3.510574 24.721622
v 8.072012 -4.493711 25.969883
v -8.072038 -4.493714 25.969879
v 8.072023 -3.510581 25.969879
v -8.072028 -3.510585 25.969873
v -8.072041 0.499291 25.969889
v 8.072009 0.499294 25.969894
v -7.655957 0.499302 24.721640
v 7.655925 0.499302 24.721643
vn -0.000000 -0.990217 0.139537
vn -0.000006 1.000000 0.000000
vn 0.000006 -1.000000 -0.000000
vn 0.275111 -0.000005 0.961412
vn 0.275112 0.000007 -0.961412
vn 1.000000 0.000004 0.000001
vn -0.275111 0.000005 -0.961412
vn -0.275112 -0.000008 0.961412
vn -1.000000 -0.000006 -0.000001
vn 0.000000 -1.000000 0.000000
vn -0.000000 -0.994546 0.104301
vn -0.079109 -0.982750 0.167166
vn 0.079109 -0.982750 0.167166
vn 0.707106 -0.000017 -0.707107
vn 0.688757 -0.043664 0.723676
vn 0.688756 0.043660 -0.723677
vn -0.707106 0.000003 -0.707107
vn 0.000000 -1.000000 -0.000005
vn 0.000000 0.000008 -1.000000
vn 0.000000 0.000002 -1.000000
vn -0.000000 1.000000 0.000005
vn 0.589926 -0.805148 0.061027
vn -0.107418 -0.981071 0.161126
vn 1.000000 -0.000007 0.000000
vn 1.000000 0.000002 0.000000
vn 0.999999 0.001356 -0.000107
vn -0.589922 -0.805151 0.061027
vn 0.107426 -0.981070 0.161126
vn -1.000000 -0.000740 0.000058
vn -1.000000 -0.000007 -0.000000
vn -1.000000 -0.000006 -0.000000
vn -0.000002 1.000000 0.000000
vn 0.000001 1.000000 0.000000
vn -0.000009 1.000000 0.000000
vn -0.000005 1.000000 0.000000
vn -0.000001 1.000000 0.000000
vn -1.000000 -0.000002 -0.000000
vn -1.000000 -0.000001 -0.000000
vn -1.000000 -0.000002 -0.000001
vn 1.000000 0.000001 0.000001
vn 1.000000 0.000002 0.000001
vn 1.000000 0.000006 0.000000
vn 0.665329 -0.738047 -0.112355
vn 0.000008 -1.000000 0.000000
vn 0.853820 -0.520568 0.000000
vn -0.665326 -0.738050 -0.112356
vn -0.853819 -0.520571 0.000000
vn -0.000001 -1.000000 0.000000
vn 0.000003 -1.000000 -0.000007
vn 0.000000 -1.000000 -0.000007
vn -0.000002 -1.000000 -0.000004
vn -0.409485 -0.000001 -0.912317
vn 0.000000 -0.000005 -1.000000
vn 0.409485 -0.000005 -0.912317
vn -0.409485 -0.000002 0.912317
vn -0.000000 -0.000002 1.000000
vn 0.409485 -0.000002 0.912317
vn 0.000002 1.000000 0.000004
vn -0.000000 1.000000 0.000007
vn -0.000003 1.000000 0.000007
vn 0.000000 -0.426802 -0.904345
g Cube_Cube_Material
usemtl Material
s off
f 28//1 25//1 26//1 27//1
f 51//2 54//2 56//2 49//2
f 50//3 55//3 53//3 52//3
f 52//4 53//4 54//4 51//4
f 49//5 56//5 55//5 50//5
f 53//6 55//6 56//6 54//6
f 47//2 58//2 60//2 45//2
f 46//3 59//3 57//3 48//3
f 48//7 57//7 58//7 47//7
f 45//8 60//8 59//8 46//8
f 57//9 59//9 60//9 58//9
f 25//10 28//10 64//10 62//10
g Cube_Cube_Material.001
usemtl Material.001
f 66//11 27//11 26//11 65//11
f 3//12 27//12 66//12
f 65//13 26//13 2//13
g Cube_Cube_Material.002
usemtl Material.002
f 6//14 2//14 11//14 9//14
f 1//15 12//15 10//15 5//15
f 8//16 4//16 15//16 13//16
f 3//17 7//17 14//17 16//17
f 1//18 4//18 15//18 12//18
f 10//19 12//19 15//19 13//19
f 10//20 13//20 18//20 19//20
f 21//21 24//21 19//21 18//21
f 25//22 32//22 31//22 26//22
f 26//23 31//23 11//23 2//23
f 12//24 10//24 30//24 32//24
f 32//25 30//25 29//25 31//25
f 31//26 29//26 9//26 11//26
f 35//27 28//27 27//27 36//27
f 36//28 27//28 3//28 16//28
f 16//29 14//29 34//29 36//29
f 36//30 34//30 33//30 35//30
f 35//31 33//31 13//31 15//31
f 19//2 24//2 44//2 39//2
f 39//32 44//32 43//32 40//32
f 40//33 43//33 23//33 20//33
f 17//34 22//34 42//34 37//34
f 37//35 42//35 41//35 38//35
f 38//36 41//36 21//36 18//36
f 46//37 18//37 13//37 45//37
f 38//38 18//38 46//38
f 45//38 13//38 33//38
f 37//38 38//38 46//38 48//38
f 47//38 45//38 33//38 34//38
f 47//25 48//25 17//25 14//25
f 34//38 14//38 47//38
f 48//38 17//38 37//38
f 50//39 49//39 9//39 20//39
f 40//40 20//40 50//40
f 49//40 9//40 29//40
f 39//40 40//40 50//40 52//40
f 51//40 49//40 29//40 30//40
f 51//41 10//41 19//41 52//41
f 30//40 10//40 51//40
f 52//40 19//40 39//40
f 49//9 50//9 52//9 51//9
f 45//42 46//42 48//42 47//42
f 61//43 12//43 32//43 62//43
f 1//44 12//44 61//44
f 62//45 32//45 25//45
f 64//46 35//46 15//46 63//46
f 28//47 35//47 64//47
f 63//48 15//48 4//48
f 16//49 3//49 66//49 70//49
f 70//50 66//50 65//50 69//50
f 69//51 65//51 2//51 11//51
f 11//52 9//52 67//52 69//52
f 69//53 67//53 68//53 70//53
f 70//54 68//54 14//54 16//54
f 17//55 14//55 68//55 71//55
f 71//56 68//56 67//56 72//56
f 72//57 67//57 9//57 20//57
f 20//58 23//58 74//58 72//58
f 72//59 74//59 73//59 71//59
f 71//60 73//60 22//60 17//60
g Cube_Cube_Material.003
usemtl Material.003
f 62//61 64//61 63//61 61//61
f 4//10 1//10 61//10 63//10
