# Blender3D v249 OBJ File: stadium3.blend
# www.blender3d.org
mtllib stadium.mtl
v 7.038458 -0.235835 -14.076434
v 14.076434 -0.235834 14.076434
v -14.076436 -0.235834 14.076430
v -7.038451 -0.235835 -14.076439
v 7.038461 0.235834 -14.076427
v 14.076426 0.235835 14.076443
v -14.076439 0.235835 14.076429
v -7.038453 0.235834 -14.076434
v 14.561498 0.235836 14.455179
v 7.523533 0.235845 -14.697691
v 14.561506 -0.235833 14.455170
v 7.523530 -0.235824 -14.697699
v -7.523525 0.235838 -14.697699
v -14.561511 0.235829 14.455166
v -7.523523 -0.235831 -14.697702
v -14.561508 -0.235839 14.455166
v -14.561516 5.237659 14.455181
v 14.561468 5.237667 14.455202
v -14.076445 5.237666 14.076445
v 14.076396 5.237666 14.076466
v 7.523503 4.235845 -14.697653
v 7.038431 4.235834 -14.076389
v -7.523531 4.235838 -14.697668
v -7.038459 4.235834 -14.076405
v -7.038459 6.284276 -11.024918
v -7.523531 6.687531 -11.497520
v 7.038431 6.284266 -11.024906
v 7.523503 6.687527 -11.497505
v 7.523501 8.725839 1.533320
v 7.038429 8.177661 1.825673
v -7.523533 8.725848 1.533307
v -7.038461 8.177674 1.825666
v -7.038462 8.181981 14.076508
v -7.523534 8.730155 13.784148
v 7.038428 8.181968 14.076514
v 7.523500 8.730145 13.784161
v 10.557413 4.736750 0.000038
v 11.042486 4.736755 -0.121226
v -10.557451 4.736750 0.000020
v -11.042523 4.736749 -0.121244
v -8.797955 4.486291 -10.556621
v -9.283028 4.486293 -10.927884
v 8.797922 4.486291 -10.556604
v 9.282995 4.486300 -10.927868
v 7.436506 0.235834 -12.484189
v -7.436606 0.235834 -12.483767
v -7.436606 0.716264 -12.483767
v 7.436506 0.716264 -12.484189
v -7.038453 0.716264 -14.076434
v 7.038461 0.716264 -14.076427
v -14.076442 3.593468 14.076437
v 14.076410 3.593468 14.076454
v -14.076441 3.014263 14.076433
v 14.076418 3.014263 14.076448
v 12.803744 2.121089 8.677057
v -12.803758 2.121089 8.677042
v 12.803738 2.700293 8.677063
v -12.803759 2.700293 8.677046
v -6.104443 0.716264 -12.483851
v -4.956471 0.716264 -12.483935
v 4.956245 0.716264 -12.484020
v 6.104322 0.716264 -12.484104
v -5.777585 0.716264 -14.076433
v -4.690964 0.716264 -14.076431
v 4.691097 0.716264 -14.076430
v 5.777612 0.716264 -14.076428
v 4.976022 0.716264 -13.798672
v 4.803494 0.716264 -13.288969
v 5.952090 0.716264 -13.276352
v 5.797668 0.716264 -12.756991
v -5.886131 0.716264 -12.841293
v -5.943280 0.716264 -13.380197
v -4.888340 0.716264 -13.715919
v -4.811712 0.716264 -13.183243
v -4.811712 1.245635 -13.183243
v -4.888340 1.245635 -13.715919
v -5.943280 1.245635 -13.380197
v -5.886131 1.245635 -12.841293
v -5.886131 1.468051 -13.107817
v -5.943280 1.468051 -13.380197
v -4.888340 1.468051 -13.715919
v -4.811712 1.468051 -13.449766
v 5.797668 1.302280 -12.756991
v 5.952090 1.302280 -13.276352
v 4.803494 1.302280 -13.288969
v 4.976022 1.302280 -13.798672
v 4.976022 1.479686 -13.798672
v 4.841485 1.479686 -13.287983
v 5.952090 1.479686 -13.276352
v 5.835660 1.479686 -12.756005
vn -0.000000 -1.000000 0.000000
vn -0.615415 -0.000026 0.788203
vn -0.788203 0.000014 -0.615415
vn 0.000012 -1.000000 -0.000003
vn 0.972074 0.000010 -0.234674
vn 0.788203 0.000009 -0.615415
vn 0.615415 0.000005 0.788203
vn 0.000002 -1.000000 0.000000
vn -0.972074 -0.000004 -0.234675
vn 0.000000 -1.000000 -0.000012
vn 0.000000 0.000012 -1.000000
vn 0.000000 -1.000000 -0.000007
vn -0.000000 -0.000010 1.000000
vn -0.000001 -0.000004 1.000000
vn -0.000000 1.000000 0.000008
vn -0.788203 0.000000 -0.615416
vn 0.788203 0.000006 -0.615415
vn 0.000001 0.000009 -1.000000
vn -0.000001 -0.000008 1.000000
vn -0.000001 -0.830274 0.557356
vn 0.000001 0.793817 -0.608157
vn -0.705716 -0.575013 0.413914
vn 0.705718 -0.575012 0.413912
vn 0.736260 -0.669023 0.101633
vn -0.736258 -0.669026 0.101633
vn 0.000001 0.987986 -0.154543
vn -0.000001 -0.989319 0.145766
vn -0.000001 -1.000000 0.000352
vn 0.000001 1.000000 -0.000352
vn -0.748957 -0.662618 0.000233
vn 0.748959 -0.662616 0.000233
vn -0.000000 0.470583 0.882356
vn 0.972074 0.000008 -0.234674
vn 0.972074 0.000007 -0.234674
vn 0.009912 0.999252 -0.037373
vn -0.972074 0.000000 -0.234675
vn -0.009927 0.999252 -0.037377
vn -0.505031 -0.859005 0.083988
vn -0.570247 -0.816509 0.090177
vn -0.505032 0.859004 -0.083989
vn -0.570248 0.816508 -0.090177
vn -0.953371 -0.262375 -0.149143
vn -0.906159 0.000002 -0.422938
vn 0.894467 -0.000002 0.447133
vn 0.951380 0.267779 0.152215
vn 0.010983 0.999706 -0.021631
vn 0.046963 0.997842 -0.045897
vn 0.906159 0.000011 -0.422937
vn 0.953373 -0.262367 -0.149143
vn -0.951383 0.267771 0.152215
vn -0.894468 -0.000011 0.447133
vn -0.046972 0.997841 -0.045893
vn -0.010996 0.999706 -0.021629
vn -0.684207 -0.719783 0.117355
vn -0.705965 -0.588039 0.394745
vn -0.745300 -0.656201 0.118018
vn -0.765579 -0.510696 0.391252
vn -0.684208 0.719782 -0.117356
vn -0.705965 0.588038 -0.394746
vn 0.765579 -0.510695 0.391253
vn 0.745301 -0.656200 0.118018
vn -0.000001 -0.000019 1.000000
vn -0.000001 0.188686 0.982037
vn -0.000000 1.000000 -0.000000
vn -0.970145 -0.000009 0.242528
vn -0.970145 -0.000008 0.242527
vn 0.970144 0.000000 0.242528
vn 0.970144 0.000001 0.242528
vn -0.970144 0.000000 -0.242528
vn 0.970145 0.000000 -0.242528
vn -0.615418 0.000002 -0.788201
vn -0.615417 0.000003 -0.788202
vn 0.615423 0.000007 -0.788197
vn 0.615416 0.000011 -0.788203
vn 0.000001 0.000006 -1.000000
vn -0.970145 -0.000010 0.242528
vn -0.615428 0.000004 -0.788193
vn -0.615416 0.000001 -0.788203
vn 0.615416 0.000003 -0.788203
vn 0.615461 0.000016 -0.788168
vn 0.000001 0.000002 -1.000000
vn -0.970144 -0.000003 0.242529
vn -0.970144 -0.000015 0.242527
vn -0.000000 -0.986592 0.163203
vn 0.973327 0.000014 -0.229422
vn -0.973327 -0.000000 -0.229422
vn 0.000000 0.986592 -0.163203
vn 0.000001 0.000008 -1.000000
vn 0.000020 0.000000 1.000000
vn 0.000064 0.000000 1.000000
vn 0.000073 0.000026 1.000000
vn 0.000073 -0.000026 1.000000
vn 0.000000 -0.000000 -1.000000
vn 0.000001 0.000000 -1.000000
vn 0.000002 -0.000003 -1.000000
vn 0.000002 0.000003 -1.000000
vn -0.303252 0.000000 -0.952910
vn 0.303275 0.000000 0.952903
vn 0.989811 0.000000 -0.142389
vn -0.994424 0.000000 0.105456
vn -0.986780 0.083297 0.139024
vn 0.975891 -0.112177 -0.187226
vn 0.199806 0.752295 0.627797
vn 0.471819 0.000000 -0.881696
vn -0.471797 0.000000 0.881707
vn 0.958528 0.000000 0.285000
vn -0.947208 0.000000 -0.320619
vn -0.952509 0.102786 -0.286638
vn 0.962480 -0.103753 0.250734
vn -0.469632 0.095692 0.877661
g Cube_Cube_Material.001
usemtl Material.001
s off
f 1//1 2//1 3//1 4//1
f 6//2 2//2 11//2 9//2
f 1//3 5//3 10//3 12//3
f 2//4 1//4 12//4 11//4
f 12//5 10//5 9//5 11//5
f 8//6 4//6 15//6 13//6
f 3//7 7//7 14//7 16//7
f 4//8 3//8 16//8 15//8
f 16//9 14//9 13//9 15//9
f 1//10 4//10 15//10 12//10
f 10//11 12//11 15//11 13//11
f 3//12 2//12 11//12 16//12
f 11//13 9//13 14//13 16//13
f 14//14 9//14 18//14 17//14
f 20//15 19//15 17//15 18//15
f 10//16 5//16 22//16 21//16
f 8//17 13//17 23//17 24//17
f 10//18 13//18 23//18 21//18
f 8//19 5//19 22//19 24//19
f 24//20 22//20 27//20 25//20
f 21//21 23//21 26//21 28//21
f 23//22 24//22 25//22 26//22
f 22//23 21//23 28//23 27//23
f 27//24 28//24 29//24 30//24
f 26//25 25//25 32//25 31//25
f 28//26 26//26 31//26 29//26
f 25//27 27//27 30//27 32//27
f 32//28 30//28 35//28 33//28
f 29//29 31//29 34//29 36//29
f 31//30 32//30 33//30 34//30
f 30//31 29//31 36//31 35//31
f 33//32 35//32 36//32 34//32
f 38//33 9//33 10//33
f 38//34 18//34 9//34
f 37//35 20//35 18//35 38//35
f 40//36 13//36 14//36
f 17//36 40//36 14//36
f 19//37 39//37 40//37 17//37
f 20//38 35//38 30//38 37//38
f 18//39 36//39 29//39 38//39
f 19//40 33//40 32//40 39//40
f 17//41 34//41 31//41 40//41
f 40//42 42//42 13//42
f 42//43 23//43 13//43
f 24//44 41//44 8//44
f 41//45 39//45 8//45
f 39//46 41//46 42//46 40//46
f 41//47 24//47 23//47 42//47
f 21//48 44//48 10//48
f 44//49 38//49 10//49
f 37//50 43//50 5//50
f 43//51 22//51 5//51
f 22//52 43//52 44//52 21//52
f 43//53 37//53 38//53 44//53
f 27//54 43//54 37//54 30//54
f 22//55 43//55 27//55
f 28//56 44//56 38//56 29//56
f 21//57 44//57 28//57
f 25//58 41//58 39//58 32//58
f 24//59 41//59 25//59
f 23//60 26//60 42//60
f 26//61 31//61 40//61 42//61
f 19//62 20//62 35//62 33//62
f 17//63 18//63 36//63 34//63
f 46//64 7//64 6//64 45//64
f 5//65 45//65 37//65
f 45//66 6//66 37//66
f 7//67 46//67 39//67
f 46//68 8//68 39//68
f 8//69 46//69 47//69 49//69
f 45//70 5//70 50//70 48//70
f 51//71 14//71 17//71
f 19//72 51//72 17//72
f 52//73 18//73 9//73
f 52//74 20//74 18//74
f 51//75 19//75 20//75 52//75
f 52//76 20//76 37//76
f 19//68 51//68 39//68
f 51//77 53//77 14//77
f 53//78 7//78 14//78
f 6//79 54//79 9//79
f 54//80 52//80 9//80
f 7//81 53//81 54//81 6//81
f 6//82 54//82 37//82
f 54//83 52//83 37//83
f 51//67 53//67 39//67
f 53//67 7//67 39//67
f 54//84 53//84 56//84 55//84
f 52//85 54//85 55//85 57//85
f 53//86 51//86 58//86 56//86
f 51//87 52//87 57//87 58//87
f 56//88 58//88 57//88 55//88
f 61//89 60//89 46//89 45//89
f 48//90 62//90 45//90
f 59//90 47//90 46//90
f 62//91 61//91 45//91
f 60//92 59//92 46//92
f 64//93 65//93 5//93 8//93
f 49//94 63//94 8//94
f 66//94 50//94 5//94
f 63//95 64//95 8//95
f 65//96 66//96 5//96
f 61//64 68//64 60//64
f 67//64 65//64 64//64
f 62//64 70//64 68//64 61//64
f 69//64 66//64 65//64 67//64
f 69//64 70//64 48//64 50//64
f 66//64 69//64 50//64
f 70//64 62//64 48//64
f 71//64 72//64 49//64 47//64
f 59//64 71//64 47//64
f 72//64 63//64 49//64
f 60//64 74//64 71//64 59//64
f 73//64 64//64 63//64 72//64
f 73//64 74//64 68//64 67//64
f 64//64 73//64 67//64
f 74//64 60//64 68//64
f 73//97 72//97 77//97 76//97
f 71//98 74//98 75//98 78//98
f 74//99 73//99 76//99 75//99
f 72//100 71//100 78//100 77//100
f 77//101 78//101 79//101 80//101
f 75//102 76//102 81//102 82//102
f 78//103 75//103 82//103 79//103
f 76//97 77//97 80//97 81//97
f 82//64 81//64 80//64 79//64
f 69//104 67//104 86//104 84//104
f 68//105 70//105 83//105 85//105
f 70//106 69//106 84//106 83//106
f 67//107 68//107 85//107 86//107
f 86//108 85//108 88//108 87//108
f 83//109 84//109 89//109 90//109
f 85//110 83//110 90//110 88//110
f 84//104 86//104 87//104 89//104
f 90//64 89//64 87//64 88//64
